# xmcd
#
# Track frame offsets:
#	150
#	29991
#	53518
#	72789
#	103151
#	125545
#	146200
#	157637
#	184724
#	205136
#	242059
#	264144
#	286791
#
# Disc length: 4327
#
# Revision: 2
# Processed by: cddbd v1.5.1PL0 Copyright (c) Steve Scherf et al.
# Submitted via: CDex 1.51
# Normalized: r1:TRMNUM
#
DISCID=b610e50d
DTITLE=Sade - Lovers Live
DYEAR=2002
DGENRE=Jazz
TTITLE0=Cherist the day
TTITLE1=Somebody already broke my heart
TTITLE2=Smoth operator
TTITLE3=Jezebel
TTITLE4=Kiss of life
TTITLE5=Slave song
TTITLE6=The sweetest gift
TTITLE7=The sweetest taboo
TTITLE8=Paradise
TTITLE9=No ordinary love
TTITLE10=By your side
TTITLE11=Flow
TTITLE12=Is it a crime
EXTD=YEAR: 2002
EXTT0=
EXTT1=
EXTT2=
EXTT3=
EXTT4=
EXTT5=
EXTT6=
EXTT7=
EXTT8=
EXTT9=
EXTT10=
EXTT11=
EXTT12=
PLAYORDER=
